<?xml version="1.0" encoding="UTF-8"?><svg height="48" viewBox="0 0 144 48" width="144" xmlns="http://www.w3.org/2000/svg"><g fill="none" fill-rule="evenodd"><path d="m-560-5872h1440v6465h-1440z" fill="#fff"/><g fill-rule="nonzero"><g><path d="m132.161729 0h-120.7201125c-.4400401 0-.8748001 0-1.3136761.0024-.36738001.0024-.73183203.009372-1.10274004.01524-.80578362.00948217-1.6096723.08037152-2.4046801.21205201-.79389113.13454716-1.56291304.3882069-2.28105609.75240003-.71726473.36727407-1.37265003.84450907-1.94238007 1.41439206-.57272103.56828041-1.05012823 1.2251357-1.41386406 1.94530807-.36473972.71873898-.61765143 1.48893402-.75000003 2.28398409-.13360688.79404592-.20550195 1.59724872-.21504001 2.4024001-.011136.36792001-.012312.73706403-.01818 1.10503204v27.7371131c.005868.3726.007044.73356.01818 1.10628.00954098.8051115.08143606 1.6082742.21504001 2.4022801.13198315.7955149.3849098 1.5661521.75000003 2.2851601.36357067.7178435.84104501 1.3720395 1.41386406 1.9371601.5675698.5724169 1.22337873 1.0499766 1.94238007 1.4144401.7181376.3651678 1.48707659.6203374 2.28105609.75696.79514295.1306257 1.59894896.2015438 2.4046801.21216.37090801.00816.73536003.01284 1.10274004.01284.438864.0024.87366.0024 1.3136761.0024h120.7201125c.43128 0 .86952 0 1.3008-.0024.36564 0 .74064-.00468 1.10628-.01284.804208-.0100516 1.606501-.0809742 2.4-.21216.796541-.1375844 1.568237-.3926864 2.289841-.75696.718352-.3646745 1.373556-.8422212 1.94064-1.4144401.571341-.5673338 1.049835-1.2210513 1.41792-1.9371601.36235-.7195311.612869-1.4901066.74292-2.2851601.133818-.7941148.208264-1.5970989.22272-2.4022801.00468-.37272.00468-.73368.00468-1.10628.00936-.43596.00936-.86952.00936-1.31256v-25.114405c0-.4394521 0-.8753881-.00936-1.3101481 0-.36796801 0-.73711203-.00468-1.10508004-.014453-.8052211-.0889-1.60824526-.22272-2.4024001-.130413-.79459011-.380917-1.56472413-.74292-2.28398409-.740731-1.44350876-1.915316-2.61851362-3.35856-3.35976013-.721606-.36330316-1.493384-.61689553-2.289841-.75240003-.793362-.13226067-1.595738-.20317469-2.4-.21211201-.36564-.005856-.74064-.012888-1.10628-.015228-.43128-.0024-.86952-.0024-1.3008-.0024z" fill="#a6a6a6"/><path d="m10.1337964 46.9500019c-.36561601 0-.72240003-.00468-1.08514804-.01284-.7514619-.0097911-1.50116745-.07521-2.24296809-.19572-.69169166-.1191263-1.36175496-.3407227-1.98808808-.6574801-.62058998-.3141328-1.18661793-.7260326-1.67640007-1.21992-.49687162-.4880697-.91053995-1.0541473-1.22461204-1.6758001-.3175329-.625693-.53728457-1.2963606-.65160003-1.9886401-.12345077-.7438621-.19024276-1.4960241-.19980001-2.2500001-.007608-.25308-.017568-1.09572-.017568-1.09572v-27.7206731s.010608-.82969203.017628-1.07344804c.00915099-.75278157.07555458-1.50377634.19863601-2.24648409.11452647-.69417593.33444826-1.36677741.65215203-1.99452008.3129178-.6212234.72428952-1.18772369 1.21816804-1.67754007.49332342-.49447031 1.06116198-.90849109 1.68280807-1.22696404.62489363-.31573969 1.29369059-.53577297 1.98398408-.65272803.74423683-.12172064 1.49654507-.18752871 2.25061209-.19687201l1.08278404-.014652h123.3222646l1.09572.01524c.747208.00887904 1.492683.07410001 2.23008.19510801.697282.11842209 1.373049.33999065 2.005081.65742003 1.245382.64181528 2.258725 1.6572276 2.898 2.90391611.312632.6234091.529162 1.29052416.64224 1.97870408.124547.74880169.194252 1.50569806.20856 2.26465209.00348.33984001.00348.70488003.00348 1.06816804.00948.45.00948.878316.00948 1.3101481v25.114405c0 .43596 0 .86136-.00948 1.29024 0 .39024 0 .74772-.00468 1.11564-.013998.7454109-.082541 1.4887972-.20508 2.2242001-.111973.6972734-.330528 1.3731759-.648 2.0040001-.316293.6149054-.727585 1.1760795-1.21872 1.6628401-.490223.4965416-1.05725.9108513-1.67928 1.227-.630281.3191925-1.305053.5416084-2.001601.6597601-.741744.1211531-1.491522.1865762-2.24304.19572-.35148.00816-.71952.01284-1.07688.01284l-1.3008.0024z" fill="#000"/></g><g fill="#fff"><g><g transform="translate(11.8 9.6)"><path d="m17.9226568 14.7608166c.0262283-2.0357652 1.0934915-3.9161928 2.8278721-4.98247221-1.0991129-1.56972874-2.8740577-2.52929008-4.7893922-2.5892161-2.0150881-.21151201-3.9686282 1.20579604-4.9954802 1.20579604-1.04672407 0-2.62772413-1.18479604-4.3302002-1.14976804-2.24001457.0723701-4.27769156 1.31507463-5.36750421 3.27344411-2.32080009 4.0181042-.58969202 9.9233644 1.63344007 13.1712965 1.11228004 1.5904201 2.41221609 3.3669602 4.11315616 3.3039602 1.66447206-.069036 2.28612009-1.0613761 4.29528018-1.0613761 1.9905121 0 2.5737481 1.0613761 4.3092002 1.0213201 1.786056-.028992 2.9113561-1.5974881 3.9846121-3.2029682.7991714-1.1332324 1.4141325-2.3857009 1.8221041-3.7110121-2.1212922-.8972025-3.5006123-2.9757789-3.5030881-5.2790042z"/><path d="m14.6447006 5.0530682c.973832-1.16904976 1.453602-2.67166516 1.3374241-4.18874417-1.4877987.1562646-2.8621079.86733565-3.8490962 1.99153208-.9746055 1.10917088-1.4683385 2.56026332-1.372452 4.03366816 1.5077482.01552412 2.9393234-.66134016 3.8841241-1.83645607z"/></g><g transform="translate(40.800001 21.4)"><path d="m9.9627244 11.1675805h-5.68008023l-1.36406405 4.0277401h-2.4058561l5.38008021-14.90160055h2.4996001l5.38008017 14.90160055h-2.446884zm-5.09180421-1.85859609h4.50240018l-2.21953209-6.53672426h-.062112z"/><path d="m25.391629 9.76367643c0 3.37617617-1.8070321 5.54530817-4.5339842 5.54530817-1.4095377.0737336-2.7372452-.6645471-3.4183561-1.9008h-.0516v5.3812562h-2.2300801v-14.45858459h2.1586321v1.80703207h.041016c.71137-1.22850254 2.0405092-1.96646547 3.4593721-1.92070807 2.7573721.000012 4.5750002 2.17969208 4.5750002 5.54649622zm-2.2921921 0c0-2.19960009-1.136724-3.64570815-2.8710961-3.64570815-1.7039041 0-2.8500001 1.47656406-2.8500001 3.64570815 0 2.18906407 1.146096 3.65508017 2.8500001 3.65508017 1.7343841 0 2.8710961-1.4355481 2.8710961-3.65508017z"/><path d="m37.3494375 9.76367643c0 3.37617617-1.8070321 5.54530817-4.5339842 5.54530817-1.4095377.0737336-2.7372452-.6645471-3.4183561-1.9008h-.0516v5.3812562h-2.2300801v-14.45858459h2.1585841v1.80703207h.041016c.7113751-1.2285018 2.0405194-1.96646039 3.4593841-1.92069607 2.7574561 0 4.5750362 2.17968008 4.5750362 5.54648422zm-2.2921921 0c0-2.19960009-1.1367241-3.64570815-2.8710961-3.64570815-1.7039041 0-2.8500001 1.47656406-2.8500001 3.64570815 0 2.18906407 1.146096 3.65508017 2.8500001 3.65508017 1.734384 0 2.8711081-1.4355481 2.8711081-3.65508017z"/><path d="m45.2525658 11.0433565c.16524 1.47774 1.6008001 2.4480001 3.5625001 2.4480001 1.8796921 0 3.2320322-.9703081 3.2320322-2.3027401 0-1.1566441-.8156281-1.84920009-2.7468721-2.32382411l-1.9312441-.46524002c-2.7363241-.66093602-4.0066442-1.94062807-4.0066442-4.01719216 0-2.5710961 2.2406281-4.33711217 5.4222602-4.33711217 3.1488002 0 5.3074202 1.76601607 5.3800803 4.33711217h-2.2512001c-.13476-1.48711206-1.3640641-2.38476009-3.1605482-2.38476009-1.796484 0-3.0257761.90820804-3.0257761 2.23008009 0 1.05351604.78516 1.67343606 2.7058561 2.14800008l1.6417921.40312802c3.0574201.72304803 4.3277402 1.95120008 4.3277402 4.13085619 0 2.7878881-2.2207081 4.5339842-5.7527403 4.5339842-3.3046921 0-5.5359362-1.7050801-5.6800802-4.4004002z"/><path d="m59.2154544 1.75976011v2.5710961h2.066016v1.76601607h-2.066016v5.98945222c0 .9304681.413676 1.3640641 1.321872 1.3640641.2452697-.0042769.4901426-.0215009.733596-.0516v1.755468c-.408326.0762955-.823355.1108494-1.238676.103128-2.1996001 0-3.0574201-.826176-3.0574201-2.9332081v-6.22730422h-1.5796801v-1.76601607h1.5796561v-2.5710961z"/><path d="m62.4780025 9.76367643c0-3.41835614 2.0132761-5.56640422 5.1527402-5.56640422 3.1500001 0 5.1539042 2.14800008 5.1539042 5.56640422 0 3.42774017-1.9933561 5.56640417-5.1539042 5.56640417-3.1594321 0-5.1527402-2.138676-5.1527402-5.56640417zm8.0343723 0c0-2.3449201-1.074612-3.72890415-2.8816441-3.72890415s-2.8804681 1.39453205-2.8804681 3.72890415c0 2.35429207 1.073436 3.72774017 2.8804681 3.72774017s2.8815961-1.3734481 2.8815961-3.72774017z"/><path d="m74.623275 4.33085621h2.126952v1.84920008h.0516001c.2966112-1.19041397 1.3873591-2.00969822 2.6132761-1.96288808.2569968-.00089733.5132846.02701289.764064.083208v2.08593608c-.3244429-.09914002-.6628925-.14465845-1.0020001-.13476-.6556221-.02659747-1.2901189.23468968-1.7368903.71525519-.4467713.48056552-.6611819 1.13239777-.5869337 1.78434491v6.44414421h-2.2300801z"/><path d="m90.4611636 12.0042925c-.3 1.9722601-2.2207081 3.3257761-4.6781282 3.3257761-3.1605481 0-5.1222602-2.11758-5.1222602-5.51484017 0-3.40780814 1.9722601-5.61796822 5.0285162-5.61796822 3.0058561 0 4.8960962 2.06484008 4.8960962 5.35898421v.76406398h-7.6734363v.1347601c-.0716431.8088379.2076499 1.6094754.7668359 2.198256.5591861.5887806 1.3443692.908956 2.1558242.8790841 1.0822108.1013995 2.1025238-.5200348 2.5089841-1.5281281zm-7.5386854-3.24256811 5.4316533-.000012c.0404706-.72679504-.2240922-1.43752436-.729948-1.96095422-.5058557-.52342987-1.2071391-.8121014-1.9348921-.79646589-.7335099-.00437733-1.4383792.28442956-1.9579374.80222792-.5195583.51779836-.8107552 1.22168366-.8088758 1.95520419z"/></g></g><g transform="translate(42.000002 9.6)"><path d="m3.39142813.87720004c.94673591-.06793899 1.8740428.29225692 2.52668565.98144621.65264286.6891893.96182954 1.63472764.84245849 2.57636193 0 2.28750009-1.23632405 3.60240014-3.36914414 3.60240014h-2.5863241v-7.16020828zm-1.47422405 6.14760024h1.35000005c.67658636.04044241 1.33537988-.2261292 1.79345829-.72569788.4580784-.49956868.66667334-1.1789489.5678658-1.84950222.09161882-.66777059-.1199801-1.3415446-.57692273-1.8370393s-1.11141053-.76085725-1.78440136-.7235088h-1.35000005z"/><path d="m8.01681632 5.33320821c-.09265545-.96853798.37176441-1.90587375 1.19848316-2.41889125.82671872-.5130175 1.87279912-.5130175 2.69951792 0 .8267187.5130175 1.2911386 1.45035327 1.1984831 2.41889125.0944184.96957876-.3695776 1.90873254-1.1970294 2.42285446-.8274517.51412192-1.8749736.51412192-2.70242538 0-.82745177-.51412192-1.29144773-1.4532757-1.1970294-2.42285446zm3.99960018 0c0-1.17128404-.526176-1.85624407-1.4496001-1.85624407-.92695202 0-1.44840004.68496003-1.44840004 1.85625607 0 1.18066805.52148402 1.86034808 1.44840004 1.86034808.9234481-.000012 1.4496121-.68438403 1.4496121-1.86036008z"/><path d="m19.8879128 8.03730032h-1.1062441l-1.116792-3.97969216h-.084372l-1.112112 3.97969216h-1.0957081l-1.489452-5.40351622h1.081644l.967968 4.12320017h.079692l1.1109361-4.12320017h1.023048l1.1109361 4.12320017h.084372l.963276-4.12320017h1.066404z"/><path d="m22.6242489 2.6337841h1.026552v.85839604h.079692c.2771219-.6320065.9246755-1.01861107 1.6125001-.96270004.5325802-.04004188 1.0544711.16426789 1.418317.55524251.3638459.39097461.5301628.92618606.4519911 1.45451757v3.49800014h-1.0664041v-3.23020813c0-.86835603-.37734-1.30020005-1.166016-1.30020005-.361241-.01682506-.7118158.12494709-.9598145.38814815-.2479987.26320107-.3686875.6215811-.3304256.9811839v3.16113613h-1.066404z"/><path d="m28.9125251.52440002h1.0664041v7.5128883h-1.0664041z"/><path d="m31.4613493 5.33320821c-.0925843-.96860134.3719088-1.90596084 1.1986889-2.41898625s1.8729142-.51302541 2.6996943 0 1.2912732 1.45038491 1.198689 2.41898625c.0942984.96961347-.3697826 1.90874071-1.1972754 2.42283999-.8274929.51409928-1.8750286.51409928-2.7025215 0-.8274928-.51409928-1.2915738-1.45322652-1.1972753-2.42283999zm3.9996001 0c0-1.17128404-.526176-1.85624407-1.4496-1.85624407-.9269521 0-1.4484001.68496003-1.4484001 1.85625607 0 1.18066805.521484 1.86034808 1.4484001 1.86034808.923436-.000012 1.449612-.68438403 1.449612-1.86036008z"/><path d="m37.6810815 6.50918426c0-.97266004.724224-1.53339606 2.0097601-1.61308807l1.463676-.084372v-.46640402c0-.57070802-.37734-.89296803-1.106244-.89296803-.595308 0-1.007808.21855601-1.1261761.60058802h-1.03242c.108984-.92812804.982032-1.52343606 2.2078081-1.52343606 1.354692 0 2.1187561.67440003 2.1187561 1.81581607v3.69199215h-1.0265641v-.75937203h-.084372c-.3486617.55455162-.9686956.87865591-1.623048.84840003-.4587167.04771418-.9162107-.10084721-1.2593811-.40895708s-.5399877-.74701099-.541795-1.20819898zm3.4734361-.46172402v-.45175202l-1.319532.08437201c-.744144.0498-1.0816441.30292801-1.0816441.77929203 0 .48632402.4218721.76933203 1.0020001.76933203.3434233.03476383.6862517-.07133394.9500045-.29400531.2637528-.22267136.4258455-.54284946.4491715-.88723874z"/><path d="m43.6177937 5.33320821c0-1.70742007.8777401-2.78906411 2.2429681-2.78906411.6893722-.03176384 1.3350331.33762346 1.6570321.94800004h.079692v-2.96774412h1.066404v7.5128883h-1.021872v-.85371603h-.084372c-.346339.6053124-.9999546.9684558-1.6968721.94276803-1.374612.00006-2.2429801-1.08160804-2.2429801-2.79313211zm1.1016001 0c0 1.14609605.54024 1.83574807 1.443756 1.83574807.8988001 0 1.4542921-.69960002 1.4542921-1.83105607 0-1.12617604-.561324-1.83574807-1.4542921-1.83574807-.897696 0-1.443792.69433203-1.443792 1.83105607z"/><path d="m53.0760021 5.33320821c-.0926554-.96853798.3717644-1.90587375 1.1984832-2.41889125.8267187-.5130175 1.8727991-.5130175 2.6995179 0 .8267187.5130175 1.2911386 1.45035327 1.1984831 2.41889125.0944183.96957876-.3695776 1.90873254-1.1970294 2.42285446s-1.8749736.51412192-2.7024254 0-1.2914477-1.4532757-1.1970294-2.42285446zm3.9996002 0c0-1.17128404-.5261761-1.85624407-1.4496001-1.85624407-.926952 0-1.4484.68496003-1.4484 1.85625607 0 1.18066805.521484 1.86034808 1.4484 1.86034808.923436-.000012 1.4496001-.68438403 1.4496001-1.86036008z"/><path d="m59.6033424 2.6337841h1.026564v.85839604h.079692c.2771218-.6320065.9246755-1.01861107 1.6125001-.96270004.5325802-.04004188 1.0544711.16426789 1.418317.55524251.3638459.39097461.5301627.92618606.4519911 1.45451757v3.49800014h-1.0664041v-3.23020813c0-.86835603-.37734-1.30020005-1.166016-1.30020005-.3612411-.01682506-.7118159.12494709-.9598145.38814815-.2479987.26320107-.3686875.6215811-.3304256.9811839v3.16113613h-1.066404z"/><path d="m70.2181948 1.28847605v1.36992006h1.170708v.89824803h-1.170708v2.77851611c0 .56601602.233208.81386403.764064.81386403.1359067-.00043495.271677-.0086524.406644-.024612v.88827604c-.1915086.03426086-.3855412.05248805-.58008.054492-1.185936 0-1.6582081-.41719202-1.6582081-1.45898406v-3.05160012h-.857808v-.89824803h.857808v-1.36987206z"/><path d="m72.8455349.52440002h1.057032v2.97774012h.084372c.2904334-.63753775.9493202-1.02463499 1.6476001-.96796804.529556-.02881526 1.044382.17999246 1.4042512.56954865.3598691.38955618.5272988.91928617.4566849 1.44490343v3.48867614h-1.0674721v-3.22560013c0-.86308803-.402-1.30020005-1.155468-1.30020005-.3710053-.0304276-.7365251.10444915-.9988413.36857222-.2623161.26412306-.3946805.63056019-.3617068 1.00134783v3.15585613h-1.066404z"/><path d="m83.7135033 6.57831626c-.2990315 1.01925542-1.2853813 1.67780771-2.3414041 1.56327606-.7205233.01902024-1.4129863-.27963517-1.8936621-.81672583-.4806759-.53709067-.7009703-1.25831912-.602434-1.97232628-.0959191-.71599145.1235499-1.43837557.6015491-1.98000373.4779991-.54162815 1.1674934-.84920428 1.889855-.84304438 1.5035161 0 2.4105481 1.02720004 2.4105481 2.72400011v.37210801h-3.8156281v.05976001c-.0337656.40096818.1031769.79757733.3771489 1.09228888.2739721.29471155.6595526.46017988 1.0619151.45571118.5217263.06263362 1.0295911-.19616036 1.2855481-.65508003zm-3.7512001-1.74140407h2.7292921c.0271835-.36671949-.1017619-.72786594-.3550597-.99444113-.2532979-.26657518-.6073914-.41378745-.9750204-.40535892-.3726096-.00468131-.7313184.14131349-.9947564.40486667-.263438.26355319-.4092759.62232585-.4044316.99493338z"/></g></g></g></g></svg>
